<?xml version="1.0"?>
<!DOCTYPE svg PUBLIC '-//W3C//DTD SVG 1.1//EN' 'http://www.w3.org/Graphics/SVG/1.1/DTD/svg11.dtd'>
<svg viewBox="0 0 129.921 129.921" preserveAspectRatio="xMaxYMax" enable-background="new 0 0 129.921 129.921" version="1.1" xml:space="preserve" xmlns="http://www.w3.org/2000/svg" xmlns:xlink="http://www.w3.org/1999/xlink">
  <g id="Layer_2" />
  <g id="Layer_1">
    <g>
      <g>
        <path d="M65.177,111.395c-23.03,0-42.763-28.748-42.763-52.282c0-7.843,1.979-14.486,5.882-19.744     c0.927-1.248,2.66-1.571,3.974-0.742c1.315,0.831,1.768,2.534,1.039,3.907c-4.151,7.82-4.259,14.351-1.978,15.918     c2.75,1.893,10.714-2.071,17.061-11.313c1.067-1.551,2.023-3.157,2.844-4.775c0.576-1.136,1.813-1.777,3.072-1.598     c1.26,0.18,2.266,1.144,2.5,2.396c1.908,10.19,5.894,15.75,7.407,15.75c1.404-0.034,5.024-5.349,6.683-14.971     c0.216-1.252,1.204-2.229,2.459-2.431c1.256-0.2,2.5,0.42,3.096,1.542c0.733,1.383,1.568,2.759,2.479,4.09     c6.351,9.24,14.33,13.191,17.062,11.311c2.166-1.486,2.214-7.462-1.45-14.893c-0.684-1.388-0.189-3.068,1.137-3.864     c1.326-0.795,3.042-0.441,3.944,0.815c3.664,5.103,5.522,11.361,5.522,18.6C105.146,83.291,87.688,111.395,65.177,111.395z      M28.644,63.773c2.32,19.494,18.507,41.676,36.533,41.676c17.52,0,31.868-21.905,33.803-41.848     c-1.365,0.833-2.946,1.256-4.703,1.256c-5.96,0-13.382-5.028-19.238-12.935c-1.808,5.718-5.156,12.801-10.67,12.933l-0.153,0.002     c-5.854,0-9.485-7.599-11.442-13.61c-5.92,8.294-13.594,13.61-19.724,13.61C31.419,64.857,29.94,64.493,28.644,63.773z" />
      </g>
      <g>
        <path d="M33.049,64.857c-1.924,0-3.634-0.507-5.086-1.506c-5.448-3.743-5.411-13.228,0.093-23.601l0,0     c0-0.001,0.001-0.002,0.001-0.003c0.084-0.159,0.183-0.309,0.293-0.448c5.218-6.963,13.568-11.279,24.822-12.827     c1.229-0.172,2.469-0.309,3.677-0.405c1.918-0.152,3.935-0.229,5.997-0.229c2.684,0,5.267,0.127,7.68,0.378     c1.255,0.125,2.51,0.29,3.716,0.487c11.431,1.839,20.211,6.614,25.38,13.808c0.096,0.133,0.181,0.273,0.252,0.42     c4.939,10.016,4.737,18.817-0.515,22.421c-1.449,0.998-3.161,1.503-5.084,1.503c-5.96,0-13.382-5.028-19.238-12.935     c-1.808,5.718-5.156,12.801-10.67,12.933l-0.153,0.002c-5.853,0-9.485-7.599-11.442-13.61     C46.854,59.541,39.181,64.856,33.049,64.857L33.049,64.857z M73.829,41.474c1.087,0,2.104,0.597,2.625,1.579     c0.733,1.383,1.567,2.759,2.479,4.09c6.351,9.24,14.33,13.191,17.062,11.311c2.144-1.472,2.212-7.342-1.341-14.668     c-4.25-5.772-11.63-9.648-21.363-11.213c-1.092-0.179-2.221-0.327-3.365-0.44c-2.223-0.231-4.6-0.349-7.078-0.349     c-1.905,0-3.764,0.071-5.525,0.211c-1.091,0.087-2.212,0.21-3.331,0.367c-9.561,1.315-16.553,4.808-20.792,10.384     c-4.042,7.727-4.126,14.155-1.866,15.708c2.752,1.895,10.716-2.073,17.061-11.313c1.066-1.551,2.023-3.157,2.843-4.775     c0.576-1.136,1.813-1.777,3.072-1.598c1.26,0.18,2.266,1.144,2.5,2.396c1.908,10.19,5.893,15.75,7.407,15.75     c1.404-0.034,5.024-5.349,6.683-14.971c0.216-1.252,1.204-2.229,2.459-2.431C73.516,41.486,73.673,41.474,73.829,41.474z" />
      </g>
      <g>
        <path d="M64.554,41.83c-3.54,0-6.903-1.543-9.394-3.55c-1.353-1.09-0.892-2.154-0.63-2.561l1.5,0.964l1.478,0.998l-1.478-0.998     l1.187-1.331c0.298,0.263,7.363,6.378,13.67,0.07c0.697-0.697,1.826-0.697,2.523,0c0.697,0.697,0.697,1.826,0,2.522     C70.608,40.746,67.519,41.83,64.554,41.83z" />
      </g>
      <g>
        <path d="M63.662,41.849c-1.335,0-2.548-0.906-2.883-2.26C60.191,37.21,55.282,16.113,63.696,7.9     c1.175-1.147,3.057-1.125,4.203,0.05c1.147,1.175,1.125,3.057-0.05,4.203c-4.521,4.414-3.196,18.297-1.298,26.011     c0.392,1.593-0.582,3.204-2.175,3.597C64.137,41.821,63.897,41.849,63.662,41.849z" />
      </g>
    </g>
    <g>
      <path d="M40.3,78.985c0,0-7.677-10.138-0.001-10.139C47.974,68.847,40.3,78.985,40.3,78.985z" />
    </g>
    <g>
      <path d="M54.322,96.573c0,0-7.677-10.138-0.001-10.139C61.996,86.436,54.322,96.573,54.322,96.573z" />
    </g>
    <g>
      <path d="M73.842,96.573c0,0-7.677-10.138-0.001-10.139C81.516,86.436,73.842,96.573,73.842,96.573z" />
    </g>
    <g>
      <path d="M63.674,78.985c0,0-7.677-10.138-0.001-10.139C71.348,68.847,63.674,78.985,63.674,78.985z" />
    </g>
    <g>
      <path d="M87.049,78.985c0,0-7.677-10.138-0.001-10.139C94.723,68.847,87.049,78.985,87.049,78.985z" />
    </g>
  </g>
</svg>
